Coordinates
version=1
nRows=27
nColumns=12
inDegrees=yes

Units are S.I. units (second, meters, Newtons, ...)
Angles are in degrees

endheader
time	SC_y	SC_z	SC_x	AC_y	AC_z	AC_x	GH_y	GH_z	GH_yy	EL_x	PS_y
       0.0              -40.84          39.24          43.62          55.39         -15.05        0.06271           4.41          29.44         -128.3          120.6          120.3
   0.04029              -40.84          39.24          43.62          55.39         -15.05         0.0642          4.423          29.44         -128.2          120.6          120.3
   0.08058              -40.85          39.24          43.62          55.39         -15.05        0.06578          4.436          29.45         -128.2          120.6          120.3
    0.1209              -40.85          39.23          43.61          55.39         -15.05        0.06747           4.45          29.45         -128.2          120.6          120.3
    0.1612              -40.85          39.23          43.61          55.39         -15.05        0.06926          4.466          29.45         -128.1          120.6          120.3
    0.2014              -40.85          39.23          43.61           55.4         -15.05        0.07117          4.482          29.45         -128.1          120.6          120.3
    0.2417              -40.85          39.22          43.61           55.4         -15.04        0.07321          4.499          29.45         -128.0          120.6          120.3
     0.282              -40.86          39.22          43.61           55.4         -15.04        0.07539          4.518          29.46         -128.0          120.6          120.3
    0.3223              -40.86          39.21          43.61           55.4         -15.04        0.07772          4.537          29.46         -127.9          120.6          120.3
    0.3626              -40.86          39.21          43.61           55.4         -15.04        0.08023          4.559          29.46         -127.9          120.6          120.3
    0.4029              -40.87           39.2           43.6           55.4         -15.03        0.08292          4.582          29.46         -127.8          120.6          120.4
    0.4432              -40.87           39.2           43.6           55.4         -15.03        0.08581          4.606          29.47         -127.7          120.6          120.4
    0.4835              -40.87          39.19           43.6           55.4         -15.03        0.08893          4.633          29.47         -127.7          120.6          120.4
    0.5237              -40.88          39.19           43.6           55.4         -15.03         0.0923          4.661          29.47         -127.6          120.6          120.4
     0.564              -40.88          39.18          43.59           55.4         -15.02        0.09595          4.692          29.48         -127.5          120.6          120.4
    0.6043              -40.88          39.17          43.59           55.4         -15.02        0.09991          4.726          29.48         -127.4          120.6          120.4
    0.6446              -40.89          39.17          43.59           55.4         -15.01         0.1042          4.762          29.48         -127.3          120.6          120.4
    0.6849              -40.89          39.16          43.58          55.41         -15.01         0.1089          4.802          29.49         -127.2          120.6          120.4
    0.7252               -40.9          39.15          43.58          55.41         -15.01          0.114          4.846          29.49         -127.1          120.6          120.5
    0.7655              -40.91          39.14          43.58          55.41          -15.0         0.1196          4.893           29.5         -126.9          120.6          120.5
    0.8058              -40.91          39.13          43.57          55.41         -14.99         0.1258          4.945          29.51         -126.8          120.6          120.5
     0.846              -40.92          39.11          43.57          55.41         -14.99         0.1325          5.003          29.51         -126.6          120.6          120.5
    0.8863              -40.93           39.1          43.56          55.41         -14.98           0.14          5.066          29.52         -126.5          120.6          120.5
    0.9266              -40.94          39.09          43.55          55.42         -14.97         0.1483          5.137          29.53         -126.3          120.6          120.6
    0.9669              -40.95          39.07          43.55          55.42         -14.97         0.1575          5.215          29.54         -126.1          120.6          120.6
     1.007              -40.96          39.05          43.54          55.42         -14.96         0.1678          5.302          29.55         -125.8          120.6          120.6
     1.047              -40.97          39.03          43.53          55.42         -14.95         0.1793            5.4          29.56         -125.5          120.6          120.6
